<svg width="14" height="7" viewBox="0 0 14 7" fill="none" xmlns="http://www.w3.org/2000/svg">
<path d="M0 0.417969V5.09375C0 5.93944 0.685562 6.625 1.53125 6.625H12.4688C13.3144 6.625 14 5.93944 14 5.09375V0.417969C14 0.342473 13.9388 0.28125 13.8633 0.28125H0.136719C0.0612227 0.28125 0 0.342473 0 0.417969ZM3.5 4C3.5 4.24161 3.30411 4.4375 3.0625 4.4375H2.625C2.38339 4.4375 2.1875 4.24161 2.1875 4V3.5625C2.1875 3.32089 2.38339 3.125 2.625 3.125H3.0625C3.30411 3.125 3.5 3.32089 3.5 3.5625V4Z" fill="#6E8BB7"/>
</svg>
