<svg width="14" height="8" viewBox="0 0 14 8" fill="none" xmlns="http://www.w3.org/2000/svg">
<path d="M13.498 0.76709H0.313726C0.140549 0.76709 0 0.907639 0 1.08082V7.22984C0 7.40301 0.140549 7.54356 0.313726 7.54356H13.498C13.6712 7.54356 13.8118 7.40301 13.8118 7.22984V1.08082C13.8118 0.907639 13.6712 0.76709 13.498 0.76709ZM2.48941 4.51391C2.48941 4.77431 2.27796 4.9845 2.01882 4.9845C1.75843 4.9845 1.54824 4.77336 1.54824 4.51391V3.79674C1.54824 3.53603 1.75937 3.32615 2.01882 3.32615C2.27639 3.32615 2.48941 3.53446 2.48941 3.79674V4.51391ZM6.90573 6.17446C5.79326 6.17446 4.88659 5.26968 4.88659 4.15533C4.88659 3.0416 5.79231 2.13587 6.90573 2.13587C8.01945 2.13587 8.92518 3.0416 8.92518 4.15533C8.92518 5.26654 8.02196 6.17446 6.90573 6.17446ZM12.2635 4.51391C12.2635 4.77368 12.0527 4.9845 11.7929 4.9845C11.5329 4.9845 11.3224 4.77368 11.3224 4.51391V3.79674C11.3224 3.53666 11.5329 3.32615 11.7929 3.32615C12.0527 3.32615 12.2635 3.53666 12.2635 3.79674V4.51391Z" fill="#6E8BB7"/>
</svg>
