<svg width="18" height="18" viewBox="0 0 18 18" fill="none" xmlns="http://www.w3.org/2000/svg">
<path d="M15.1999 9.82484L15.1916 9.8415C15.2249 9.5665 15.2583 9.28317 15.2583 8.99984C15.2583 8.7165 15.2333 8.44984 15.1999 8.17484L15.2083 8.1915L17.2416 6.5915L15.2166 3.07484L12.8249 4.0415L12.8333 4.04984C12.3999 3.7165 11.9249 3.43317 11.4083 3.2165H11.4166L11.0333 0.666504H6.97493L6.60827 3.22484H6.6166C6.09994 3.4415 5.62493 3.72484 5.1916 4.05817L5.19993 4.04984L2.79993 3.07484L0.766602 6.5915L2.79993 8.1915L2.80827 8.17484C2.77494 8.44984 2.74993 8.7165 2.74993 8.99984C2.74993 9.28317 2.77493 9.5665 2.8166 9.8415L2.80827 9.82484L1.05827 11.1998L0.783268 11.4165L2.80827 14.9165L5.20827 13.9582L5.1916 13.9248C5.63327 14.2665 6.10827 14.5498 6.63327 14.7665H6.60827L6.98327 17.3332H11.0249C11.0249 17.3332 11.0499 17.1832 11.0749 16.9832L11.3916 14.7748H11.3833C11.8999 14.5582 12.3833 14.2748 12.8249 13.9332L12.8083 13.9665L15.2083 14.9248L17.2333 11.4248C17.2333 11.4248 17.1166 11.3248 16.9583 11.2082L15.1999 9.82484ZM8.99994 11.9165C7.3916 11.9165 6.08327 10.6082 6.08327 8.99984C6.08327 7.3915 7.3916 6.08317 8.99994 6.08317C10.6083 6.08317 11.9166 7.3915 11.9166 8.99984C11.9166 10.6082 10.6083 11.9165 8.99994 11.9165Z" fill="#6E8BB7"/>
</svg>
