<svg width="14" height="12" viewBox="0 0 14 12" fill="none" xmlns="http://www.w3.org/2000/svg">
<path d="M2.33338 2.00008H11.6667C12.0334 2.00008 12.3334 1.70008 12.3334 1.33341C12.3334 0.966748 12.0334 0.666748 11.6667 0.666748H2.33338C1.96672 0.666748 1.66672 0.966748 1.66672 1.33341C1.66672 1.70008 1.96672 2.00008 2.33338 2.00008ZM12.44 3.20008C12.38 2.89341 12.1067 2.66675 11.7867 2.66675H2.21338C1.89338 2.66675 1.62005 2.89341 1.56005 3.20008L0.893382 6.53341C0.813382 6.94675 1.12672 7.33341 1.54672 7.33341H1.66672V10.6667C1.66672 11.0334 1.96672 11.3334 2.33338 11.3334H7.66672C8.03338 11.3334 8.33338 11.0334 8.33338 10.6667V7.33341H11V10.6667C11 11.0334 11.3 11.3334 11.6667 11.3334C12.0334 11.3334 12.3334 11.0334 12.3334 10.6667V7.33341H12.4534C12.8734 7.33341 13.1867 6.94675 13.1067 6.53341L12.44 3.20008ZM7.00005 10.0001H3.00005V7.33341H7.00005V10.0001Z" fill="#6E8BB7"/>
</svg>
